<?xml version="1.0" standalone="no"?><!DOCTYPE svg PUBLIC "-//W3C//DTD SVG 1.1//EN" "http://www.w3.org/Graphics/SVG/1.1/DTD/svg11.dtd"><svg t="1632714735468" class="icon" viewBox="0 0 1024 1024" version="1.1" xmlns="http://www.w3.org/2000/svg" p-id="755" xmlns:xlink="http://www.w3.org/1999/xlink" width="200" height="200"><defs><style type="text/css"></style></defs><path d="M198.77683427 671.17605091c-109.89262848-191.27610709-84.85671139-302.83014713-84.85671139-302.83014712s-213.65493305 39.72064142-49.47088384 356.90847346c163.9220224 316.70921557 344.53143211 186.0994048 344.53143211 186.0994048S302.64154909 851.94740736 198.77683427 671.17605091zM423.78295182 295.25258354c235.64135765 126.93175637 306.19514425 17.40706019 306.19514425 17.40706019s7.29820501-61.80493312-6.53903644-143.43867278c-13.79867762-81.40561522-55.28337294-159.41244587-55.28337294-159.41244586s3.29858731-0.73819705-22.61172566-0.73819706c-74.98075705 0-96.1695653 63.5513947-216.57393607 113.40897053-78.60416967 32.54710045-79.85814983 17.77732494-150.2047835 30.73539413-27.34243499 5.05681579-56.43843811 18.55746503-81.08545024 40.11071147-59.56936931 52.1256448-141.83190414 185.31809849-141.83190415 185.31809849S282.77534493 219.28569856 423.78295182 295.25258354zM978.82556871 322.71036189C937.66802887 262.23979861 695.45512846 22.94007581 695.45512846 22.94007581s140.42191872 259.484928-9.90857671 604.81397646C534.96684317 973.62556473 325.77954361 949.29405725 325.77954361 949.29405725s103.08352569 15.54176 176.00091818 24.44090822c61.71871687 7.53215488 118.6950747 8.68139349 118.69507471 8.6813935s203.34335317 13.82663965 336.55910855-252.37651456C1065.44039367 513.42280135 1005.35640633 361.69280512 978.82556871 322.71036189z" fill="#0ba5e9" p-id="756"></path></svg>